<mxfile host="app.diagrams.net" modified="2024-06-08T20:46:16.082Z" agent="Mozilla/5.0 (Macintosh; Intel Mac OS X 10_15_7) AppleWebKit/605.1.15 (KHTML, like Gecko) Version/17.5 Safari/605.1.15" etag="nFv2fofrJqeXhT8B1QMv" version="24.5.2" type="github">
  <diagram name="Page-1" id="JOmqEFVKARnIYfdpu1kW">
    <mxGraphModel dx="1206" dy="1913" grid="1" gridSize="10" guides="1" tooltips="1" connect="1" arrows="1" fold="1" page="1" pageScale="1" pageWidth="850" pageHeight="1100" math="0" shadow="0">
      <root>
        <mxCell id="0" />
        <mxCell id="1" parent="0" />
        <mxCell id="U2XrNUIXmNb6tgQigSwD-6" style="rounded=0;orthogonalLoop=1;jettySize=auto;html=1;exitX=1;exitY=0.3333333333333333;exitDx=0;exitDy=0;exitPerimeter=0;entryX=0;entryY=0.5;entryDx=0;entryDy=0;" edge="1" parent="1" source="U2XrNUIXmNb6tgQigSwD-1" target="U2XrNUIXmNb6tgQigSwD-3">
          <mxGeometry relative="1" as="geometry" />
        </mxCell>
        <mxCell id="U2XrNUIXmNb6tgQigSwD-9" style="rounded=0;orthogonalLoop=1;jettySize=auto;html=1;exitX=1;exitY=0.3333333333333333;exitDx=0;exitDy=0;exitPerimeter=0;entryX=0;entryY=0.5;entryDx=0;entryDy=0;" edge="1" parent="1" source="U2XrNUIXmNb6tgQigSwD-1" target="U2XrNUIXmNb6tgQigSwD-4">
          <mxGeometry relative="1" as="geometry" />
        </mxCell>
        <mxCell id="U2XrNUIXmNb6tgQigSwD-13" style="rounded=0;orthogonalLoop=1;jettySize=auto;html=1;exitX=1;exitY=0.3333333333333333;exitDx=0;exitDy=0;exitPerimeter=0;entryX=0;entryY=0.5;entryDx=0;entryDy=0;" edge="1" parent="1" source="U2XrNUIXmNb6tgQigSwD-1" target="U2XrNUIXmNb6tgQigSwD-12">
          <mxGeometry relative="1" as="geometry" />
        </mxCell>
        <mxCell id="U2XrNUIXmNb6tgQigSwD-22" style="rounded=0;orthogonalLoop=1;jettySize=auto;html=1;exitX=1;exitY=0.3333333333333333;exitDx=0;exitDy=0;exitPerimeter=0;entryX=0;entryY=0.5;entryDx=0;entryDy=0;" edge="1" parent="1" source="U2XrNUIXmNb6tgQigSwD-1" target="U2XrNUIXmNb6tgQigSwD-14">
          <mxGeometry relative="1" as="geometry" />
        </mxCell>
        <mxCell id="U2XrNUIXmNb6tgQigSwD-23" style="rounded=0;orthogonalLoop=1;jettySize=auto;html=1;exitX=1;exitY=0.3333333333333333;exitDx=0;exitDy=0;exitPerimeter=0;entryX=0;entryY=0.5;entryDx=0;entryDy=0;" edge="1" parent="1" source="U2XrNUIXmNb6tgQigSwD-1" target="U2XrNUIXmNb6tgQigSwD-15">
          <mxGeometry relative="1" as="geometry" />
        </mxCell>
        <mxCell id="U2XrNUIXmNb6tgQigSwD-28" style="rounded=0;orthogonalLoop=1;jettySize=auto;html=1;exitX=1;exitY=0.3333333333333333;exitDx=0;exitDy=0;exitPerimeter=0;entryX=0;entryY=0.5;entryDx=0;entryDy=0;" edge="1" parent="1" source="U2XrNUIXmNb6tgQigSwD-1" target="U2XrNUIXmNb6tgQigSwD-27">
          <mxGeometry relative="1" as="geometry" />
        </mxCell>
        <mxCell id="U2XrNUIXmNb6tgQigSwD-1" value="User" style="shape=umlActor;verticalLabelPosition=bottom;verticalAlign=top;html=1;outlineConnect=0;" vertex="1" parent="1">
          <mxGeometry x="70" y="200" width="30" height="60" as="geometry" />
        </mxCell>
        <mxCell id="U2XrNUIXmNb6tgQigSwD-3" value="Create account" style="ellipse;whiteSpace=wrap;html=1;" vertex="1" parent="1">
          <mxGeometry x="260" y="100" width="140" height="70" as="geometry" />
        </mxCell>
        <mxCell id="U2XrNUIXmNb6tgQigSwD-4" value="Loggin account" style="ellipse;whiteSpace=wrap;html=1;" vertex="1" parent="1">
          <mxGeometry x="260" y="180" width="140" height="70" as="geometry" />
        </mxCell>
        <mxCell id="U2XrNUIXmNb6tgQigSwD-5" value="Email verification" style="ellipse;whiteSpace=wrap;html=1;" vertex="1" parent="1">
          <mxGeometry x="475" y="-40" width="140" height="70" as="geometry" />
        </mxCell>
        <mxCell id="U2XrNUIXmNb6tgQigSwD-10" value="Create use object" style="ellipse;whiteSpace=wrap;html=1;" vertex="1" parent="1">
          <mxGeometry x="480" y="48" width="140" height="70" as="geometry" />
        </mxCell>
        <mxCell id="U2XrNUIXmNb6tgQigSwD-11" style="rounded=0;orthogonalLoop=1;jettySize=auto;html=1;exitX=1;exitY=0.5;exitDx=0;exitDy=0;entryX=0;entryY=0.5;entryDx=0;entryDy=0;dashed=1;dashPattern=12 12;" edge="1" parent="1" source="U2XrNUIXmNb6tgQigSwD-3" target="U2XrNUIXmNb6tgQigSwD-10">
          <mxGeometry relative="1" as="geometry">
            <mxPoint x="389" y="120" as="sourcePoint" />
            <mxPoint x="490" y="55" as="targetPoint" />
          </mxGeometry>
        </mxCell>
        <mxCell id="U2XrNUIXmNb6tgQigSwD-12" value="send reset password email" style="ellipse;whiteSpace=wrap;html=1;" vertex="1" parent="1">
          <mxGeometry x="265" y="260" width="140" height="70" as="geometry" />
        </mxCell>
        <mxCell id="U2XrNUIXmNb6tgQigSwD-14" value="Logout account" style="ellipse;whiteSpace=wrap;html=1;" vertex="1" parent="1">
          <mxGeometry x="260" y="360" width="140" height="70" as="geometry" />
        </mxCell>
        <mxCell id="U2XrNUIXmNb6tgQigSwD-15" value="Delete account" style="ellipse;whiteSpace=wrap;html=1;" vertex="1" parent="1">
          <mxGeometry x="260" y="460" width="140" height="70" as="geometry" />
        </mxCell>
        <mxCell id="U2XrNUIXmNb6tgQigSwD-16" value="Delete use object" style="ellipse;whiteSpace=wrap;html=1;" vertex="1" parent="1">
          <mxGeometry x="500" y="400" width="140" height="70" as="geometry" />
        </mxCell>
        <mxCell id="U2XrNUIXmNb6tgQigSwD-19" value="" style="rounded=0;orthogonalLoop=1;jettySize=auto;html=1;exitX=1;exitY=0;exitDx=0;exitDy=0;entryX=0;entryY=0.5;entryDx=0;entryDy=0;dashed=1;dashPattern=12 12;" edge="1" parent="1" source="U2XrNUIXmNb6tgQigSwD-3" target="U2XrNUIXmNb6tgQigSwD-5">
          <mxGeometry relative="1" as="geometry">
            <mxPoint x="379" y="110" as="sourcePoint" />
            <mxPoint x="400" y="55" as="targetPoint" />
          </mxGeometry>
        </mxCell>
        <mxCell id="U2XrNUIXmNb6tgQigSwD-21" value="" style="rounded=0;orthogonalLoop=1;jettySize=auto;html=1;exitX=1;exitY=0.5;exitDx=0;exitDy=0;entryX=0;entryY=0.5;entryDx=0;entryDy=0;dashed=1;dashPattern=12 12;" edge="1" parent="1" source="U2XrNUIXmNb6tgQigSwD-15" target="U2XrNUIXmNb6tgQigSwD-16">
          <mxGeometry relative="1" as="geometry">
            <mxPoint x="400" y="495" as="sourcePoint" />
            <mxPoint x="460.49" y="451.5799999999999" as="targetPoint" />
          </mxGeometry>
        </mxCell>
        <mxCell id="U2XrNUIXmNb6tgQigSwD-24" value="&amp;lt;includes&amp;gt;" style="text;html=1;align=center;verticalAlign=middle;resizable=0;points=[];autosize=1;strokeColor=none;fillColor=none;" vertex="1" parent="1">
          <mxGeometry x="350" y="18" width="80" height="30" as="geometry" />
        </mxCell>
        <mxCell id="U2XrNUIXmNb6tgQigSwD-27" value="Update data" style="ellipse;whiteSpace=wrap;html=1;" vertex="1" parent="1">
          <mxGeometry x="260" y="610" width="140" height="70" as="geometry" />
        </mxCell>
        <mxCell id="U2XrNUIXmNb6tgQigSwD-31" style="rounded=0;orthogonalLoop=1;jettySize=auto;html=1;exitX=0;exitY=0.5;exitDx=0;exitDy=0;entryX=1;entryY=0;entryDx=0;entryDy=0;dashed=1;dashPattern=12 12;" edge="1" parent="1" source="U2XrNUIXmNb6tgQigSwD-29" target="U2XrNUIXmNb6tgQigSwD-27">
          <mxGeometry relative="1" as="geometry" />
        </mxCell>
        <mxCell id="U2XrNUIXmNb6tgQigSwD-29" value="Update password" style="ellipse;whiteSpace=wrap;html=1;" vertex="1" parent="1">
          <mxGeometry x="460" y="560" width="140" height="70" as="geometry" />
        </mxCell>
        <mxCell id="U2XrNUIXmNb6tgQigSwD-30" value="Update email" style="ellipse;whiteSpace=wrap;html=1;" vertex="1" parent="1">
          <mxGeometry x="460" y="690" width="140" height="70" as="geometry" />
        </mxCell>
        <mxCell id="U2XrNUIXmNb6tgQigSwD-32" value="&amp;lt;includes&amp;gt;" style="text;html=1;align=center;verticalAlign=middle;resizable=0;points=[];autosize=1;strokeColor=none;fillColor=none;" vertex="1" parent="1">
          <mxGeometry x="435" y="120" width="80" height="30" as="geometry" />
        </mxCell>
        <mxCell id="U2XrNUIXmNb6tgQigSwD-33" value="&amp;lt;includes&amp;gt;" style="text;html=1;align=center;verticalAlign=middle;resizable=0;points=[];autosize=1;strokeColor=none;fillColor=none;" vertex="1" parent="1">
          <mxGeometry x="440" y="470" width="80" height="30" as="geometry" />
        </mxCell>
        <mxCell id="U2XrNUIXmNb6tgQigSwD-34" value="&amp;lt;extend&amp;gt;" style="text;html=1;align=center;verticalAlign=middle;resizable=0;points=[];autosize=1;strokeColor=none;fillColor=none;" vertex="1" parent="1">
          <mxGeometry x="410" y="660" width="70" height="30" as="geometry" />
        </mxCell>
        <mxCell id="U2XrNUIXmNb6tgQigSwD-35" style="rounded=0;orthogonalLoop=1;jettySize=auto;html=1;exitX=0;exitY=0.5;exitDx=0;exitDy=0;dashed=1;dashPattern=12 12;" edge="1" parent="1" source="U2XrNUIXmNb6tgQigSwD-30" target="U2XrNUIXmNb6tgQigSwD-27">
          <mxGeometry relative="1" as="geometry">
            <mxPoint x="470" y="605" as="sourcePoint" />
            <mxPoint x="390" y="630" as="targetPoint" />
          </mxGeometry>
        </mxCell>
        <mxCell id="U2XrNUIXmNb6tgQigSwD-36" value="&amp;lt;extend&amp;gt;" style="text;html=1;align=center;verticalAlign=middle;resizable=0;points=[];autosize=1;strokeColor=none;fillColor=none;" vertex="1" parent="1">
          <mxGeometry x="390" y="570" width="70" height="30" as="geometry" />
        </mxCell>
      </root>
    </mxGraphModel>
  </diagram>
</mxfile>
